<svg xmlns="http://www.w3.org/2000/svg" width="188.637" height="38.146" viewBox="0 0 188.637 38.146">
  <g id="Group_173" data-name="Group 173" transform="translate(-4.2 -3.543)">
    <g id="Group_169" data-name="Group 169" transform="translate(4.2 8.251)">
      <path id="Path_612" data-name="Path 612" d="M4.2,8.765H17.209c12.144.129,21.763,4.551,21.635,16.621-1.127,13.015-8.9,16.058-21.953,15.426L4.2,40.675Zm11.877,25.13,3.266.111c4.846.226,8.16-1.844,8.226-8.057s-2.93-9.409-8.564-9.522l-3.043.113Z" transform="translate(-4.2 -8.765)" fill="#2852a1"/>
    </g>
    <path id="Path_613" data-name="Path 613" d="M43.125,42.007H54.393l9.236-24L74,42.007H85.268L69.944,8.765h-12.4Z" transform="translate(-3.836 -0.514)" fill="#2852a1"/>
    <path id="Path_614" data-name="Path 614" d="M68.983,43.512a5.648,5.648,0,1,1,2.283-4.535,5.648,5.648,0,0,1-2.283,4.535" transform="translate(-5.496 -2.935)" fill="#ec3a3d"/>
    <path id="Path_615" data-name="Path 615" d="M105.52,33.1V8.765h-12.4V42.007h25.466V33.1Z" transform="translate(-8.763 -0.514)" fill="#2852a1"/>
    <g id="Group_170" data-name="Group 170" transform="translate(111.818 8.128)">
      <path id="Path_616" data-name="Path 616" d="M141.4,8.63c10.049.122,17.684,6.279,17.628,16.546-.051,10.174-6.236,16.6-17.793,16.546s-17.708-6.458-17.657-16.633C123.582,15.476,129.746,8.572,141.4,8.63ZM141.323,32.6c4.573.076,6.193-4.822,6.3-7.23-.3-4.113-2.7-6.742-6.3-7.043-4.217.226-6.922,2.855-6.772,7.043C134.7,28.621,136.73,32.678,141.323,32.6Z" transform="translate(-123.583 -8.63)" fill="#2852a1"/>
    </g>
    <g id="Group_171" data-name="Group 171" transform="translate(152.2 8.584)">
      <path id="Path_617" data-name="Path 617" d="M199.466,40.308a52.774,52.774,0,0,1-12.806,1.4c-8.825,0-18.283-4.573-18.283-16.13,0-10.459,8.677-16.769,20.058-16.43a31.563,31.563,0,0,1,11.033,2.216v7.888a27.735,27.735,0,0,0-10.02-2.479c-7.164,0-10.215,3.568-10.254,9.051-.028,4.167,2.224,8.753,8.675,8.753a7.745,7.745,0,0,0,3.043-.563l.006-1.991,8.548-.037Z" transform="translate(-168.378 -9.136)" fill="#2852a1"/>
    </g>
    <rect id="Rectangle_63" data-name="Rectangle 63" width="12.724" height="6.649" transform="translate(170.565 22.11)" fill="#ec3a3d"/>
    <g id="Group_172" data-name="Group 172" transform="translate(185.032 3.543)">
      <path id="Path_618" data-name="Path 618" d="M204.8,7.446a3.9,3.9,0,1,1,3.9,3.9A3.9,3.9,0,0,1,204.8,7.446Zm6.854,0a2.958,2.958,0,1,0-5.9,0,2.957,2.957,0,1,0,5.9,0ZM207.2,5.218h1.643c1.06,0,1.633.368,1.633,1.3A1.1,1.1,0,0,1,209.319,7.7l1.189,1.931h-.843l-1.145-1.9h-.5V9.64H207.2Zm.822,1.892h.725c.486,0,.907-.065.907-.66,0-.519-.475-.61-.9-.61h-.735Z" transform="translate(-204.8 -3.543)" fill="#2852a1"/>
    </g>
  </g>
</svg>
